<mxfile modified="2019-12-10T06:50:09.424Z" host="www.draw.io" agent="Mozilla/5.0 (Windows NT 6.1; Win64; x64) AppleWebKit/537.36 (KHTML, like Gecko) Chrome/78.0.3904.108 Safari/537.36" etag="TAswX-s7xLm__u2xCIau" version="12.3.9" type="github" pages="1">
  <diagram id="fIqRrQ5pbafK5gHmHEuw" name="Page-1">
    <mxGraphModel dx="1346" dy="739" grid="1" gridSize="10" guides="1" tooltips="1" connect="1" arrows="1" fold="1" page="1" pageScale="1" pageWidth="827" pageHeight="1169" math="0" shadow="0">
      <root>
        <mxCell id="0"/>
        <mxCell id="1" parent="0"/>
        <mxCell id="tpZ0usnBtLV4rIkdhi2c-200" value="公共服务" style="rounded=1;whiteSpace=wrap;html=1;fontSize=16;fontStyle=1;verticalAlign=top;" parent="1" vertex="1">
          <mxGeometry x="690" y="437.5" width="350" height="277" as="geometry"/>
        </mxCell>
        <mxCell id="tpZ0usnBtLV4rIkdhi2c-168" value="中国集群" style="rounded=1;whiteSpace=wrap;html=1;fontSize=14;verticalAlign=top;fontStyle=1" parent="1" vertex="1">
          <mxGeometry x="390" y="125" width="150" height="90" as="geometry"/>
        </mxCell>
        <mxCell id="tpZ0usnBtLV4rIkdhi2c-162" value="Console" style="rounded=0;whiteSpace=wrap;html=1;fontSize=14;fillColor=#ffe6cc;strokeColor=#d79b00;" parent="1" vertex="1">
          <mxGeometry x="430" y="165" width="102" height="42" as="geometry"/>
        </mxCell>
        <mxCell id="tpZ0usnBtLV4rIkdhi2c-171" value="亚太集群" style="rounded=1;whiteSpace=wrap;html=1;fontSize=14;verticalAlign=top;fontStyle=1" parent="1" vertex="1">
          <mxGeometry x="390" y="245" width="150" height="90" as="geometry"/>
        </mxCell>
        <mxCell id="tpZ0usnBtLV4rIkdhi2c-172" value="Console" style="rounded=0;whiteSpace=wrap;html=1;fontSize=14;fillColor=#ffe6cc;strokeColor=#d79b00;" parent="1" vertex="1">
          <mxGeometry x="430" y="285" width="102" height="42" as="geometry"/>
        </mxCell>
        <mxCell id="tpZ0usnBtLV4rIkdhi2c-173" value="拉美集群" style="rounded=1;whiteSpace=wrap;html=1;fontSize=14;verticalAlign=top;fontStyle=1" parent="1" vertex="1">
          <mxGeometry x="390" y="365" width="150" height="90" as="geometry"/>
        </mxCell>
        <mxCell id="tpZ0usnBtLV4rIkdhi2c-174" value="Console" style="rounded=0;whiteSpace=wrap;html=1;fontSize=14;fillColor=#ffe6cc;strokeColor=#d79b00;" parent="1" vertex="1">
          <mxGeometry x="430" y="405" width="102" height="42" as="geometry"/>
        </mxCell>
        <mxCell id="tpZ0usnBtLV4rIkdhi2c-175" value="南非集群" style="rounded=1;whiteSpace=wrap;html=1;fontSize=14;verticalAlign=top;fontStyle=1" parent="1" vertex="1">
          <mxGeometry x="390" y="485" width="150" height="90" as="geometry"/>
        </mxCell>
        <mxCell id="tpZ0usnBtLV4rIkdhi2c-176" value="Console" style="rounded=0;whiteSpace=wrap;html=1;fontSize=14;fillColor=#ffe6cc;strokeColor=#d79b00;" parent="1" vertex="1">
          <mxGeometry x="430" y="525" width="102" height="42" as="geometry"/>
        </mxCell>
        <mxCell id="tpZ0usnBtLV4rIkdhi2c-178" value="..." style="rounded=1;whiteSpace=wrap;html=1;fontSize=14;verticalAlign=top;fontStyle=1" parent="1" vertex="1">
          <mxGeometry x="390" y="605" width="150" height="90" as="geometry"/>
        </mxCell>
        <mxCell id="tpZ0usnBtLV4rIkdhi2c-179" value="Console" style="rounded=0;whiteSpace=wrap;html=1;fontSize=14;fillColor=#ffe6cc;strokeColor=#d79b00;" parent="1" vertex="1">
          <mxGeometry x="430" y="645" width="102" height="42" as="geometry"/>
        </mxCell>
        <mxCell id="tpZ0usnBtLV4rIkdhi2c-180" value="智能&lt;br style=&quot;font-size: 16px;&quot;&gt;DNS" style="rounded=1;whiteSpace=wrap;html=1;fontSize=16;fontStyle=1" parent="1" vertex="1">
          <mxGeometry x="179" y="125" width="90" height="560" as="geometry"/>
        </mxCell>
        <mxCell id="tpZ0usnBtLV4rIkdhi2c-182" value="Cloud Service" style="rounded=1;whiteSpace=wrap;html=1;fontSize=14;fontStyle=1;verticalAlign=top;" parent="1" vertex="1">
          <mxGeometry x="690" y="105.5" width="340" height="309" as="geometry"/>
        </mxCell>
        <mxCell id="tpZ0usnBtLV4rIkdhi2c-183" value="Region1" style="rounded=0;whiteSpace=wrap;html=1;fontSize=14;fillColor=#f8cecc;strokeColor=#b85450;" parent="1" vertex="1">
          <mxGeometry x="710" y="149.5" width="120" height="60" as="geometry"/>
        </mxCell>
        <mxCell id="tpZ0usnBtLV4rIkdhi2c-185" value="Region2" style="rounded=0;whiteSpace=wrap;html=1;fontSize=14;fillColor=#f8cecc;strokeColor=#b85450;" parent="1" vertex="1">
          <mxGeometry x="710" y="236.5" width="120" height="60" as="geometry"/>
        </mxCell>
        <mxCell id="tpZ0usnBtLV4rIkdhi2c-186" value="Region3" style="rounded=0;whiteSpace=wrap;html=1;fontSize=14;fillColor=#f8cecc;strokeColor=#b85450;" parent="1" vertex="1">
          <mxGeometry x="710" y="323.5" width="120" height="60" as="geometry"/>
        </mxCell>
        <mxCell id="tpZ0usnBtLV4rIkdhi2c-187" value="Region4" style="rounded=0;whiteSpace=wrap;html=1;fontSize=14;fillColor=#f8cecc;strokeColor=#b85450;" parent="1" vertex="1">
          <mxGeometry x="880" y="149.5" width="120" height="60" as="geometry"/>
        </mxCell>
        <mxCell id="tpZ0usnBtLV4rIkdhi2c-188" value="Region5" style="rounded=0;whiteSpace=wrap;html=1;fontSize=14;fillColor=#f8cecc;strokeColor=#b85450;" parent="1" vertex="1">
          <mxGeometry x="880" y="236.5" width="120" height="60" as="geometry"/>
        </mxCell>
        <mxCell id="tpZ0usnBtLV4rIkdhi2c-189" value="......" style="rounded=0;whiteSpace=wrap;html=1;fontSize=14;fillColor=#f8cecc;strokeColor=#b85450;" parent="1" vertex="1">
          <mxGeometry x="880" y="323.5" width="120" height="60" as="geometry"/>
        </mxCell>
        <mxCell id="tpZ0usnBtLV4rIkdhi2c-190" value="国际站" style="rounded=1;whiteSpace=wrap;html=1;fontSize=14;fontStyle=1;verticalAlign=top;" parent="1" vertex="1">
          <mxGeometry x="715" y="599.5" width="206" height="100" as="geometry"/>
        </mxCell>
        <mxCell id="tpZ0usnBtLV4rIkdhi2c-191" value="IAM" style="rounded=0;whiteSpace=wrap;html=1;fontSize=14;" parent="1" vertex="1">
          <mxGeometry x="728" y="639.5" width="80" height="40" as="geometry"/>
        </mxCell>
        <mxCell id="tpZ0usnBtLV4rIkdhi2c-192" value="CBC" style="rounded=0;whiteSpace=wrap;html=1;fontSize=14;" parent="1" vertex="1">
          <mxGeometry x="816" y="639.5" width="80" height="40" as="geometry"/>
        </mxCell>
        <mxCell id="tpZ0usnBtLV4rIkdhi2c-194" value="CDN+OBS" style="ellipse;shape=cloud;whiteSpace=wrap;html=1;rounded=0;fontSize=14;" parent="1" vertex="1">
          <mxGeometry x="275" y="750" width="265" height="80" as="geometry"/>
        </mxCell>
        <mxCell id="tpZ0usnBtLV4rIkdhi2c-195" value="中国地区&lt;br&gt;用户" style="shape=umlActor;verticalLabelPosition=bottom;labelBackgroundColor=#ffffff;verticalAlign=top;html=1;outlineConnect=0;rounded=0;fontSize=14;" parent="1" vertex="1">
          <mxGeometry x="60" y="135" width="40" height="45" as="geometry"/>
        </mxCell>
        <mxCell id="tpZ0usnBtLV4rIkdhi2c-196" value="中国站" style="rounded=1;whiteSpace=wrap;html=1;fontSize=14;fontStyle=1;verticalAlign=top;" parent="1" vertex="1">
          <mxGeometry x="715" y="488.5" width="206" height="100" as="geometry"/>
        </mxCell>
        <mxCell id="tpZ0usnBtLV4rIkdhi2c-197" value="IAM" style="rounded=0;whiteSpace=wrap;html=1;fontSize=14;flipH=0;flipV=1;" parent="1" vertex="1">
          <mxGeometry x="728" y="528.5" width="80" height="40" as="geometry"/>
        </mxCell>
        <mxCell id="tpZ0usnBtLV4rIkdhi2c-198" value="CBC" style="rounded=0;whiteSpace=wrap;html=1;fontSize=14;flipH=0;flipV=1;" parent="1" vertex="1">
          <mxGeometry x="825" y="528.5" width="80" height="40" as="geometry"/>
        </mxCell>
        <mxCell id="tpZ0usnBtLV4rIkdhi2c-199" value="Silvan" style="rounded=0;whiteSpace=wrap;html=1;fontSize=14;flipH=0;flipV=1;" parent="1" vertex="1">
          <mxGeometry x="940" y="489.5" width="80" height="205" as="geometry"/>
        </mxCell>
        <mxCell id="tpZ0usnBtLV4rIkdhi2c-201" value="LB" style="rounded=1;whiteSpace=wrap;html=1;fontSize=16;fontStyle=1;fillColor=#d5e8d4;strokeColor=#82b366;" parent="1" vertex="1">
          <mxGeometry x="360" y="150" width="53" height="50" as="geometry"/>
        </mxCell>
        <mxCell id="tpZ0usnBtLV4rIkdhi2c-202" value="LB" style="rounded=1;whiteSpace=wrap;html=1;fontSize=16;fontStyle=1;fillColor=#d5e8d4;strokeColor=#82b366;" parent="1" vertex="1">
          <mxGeometry x="360" y="265" width="53" height="50" as="geometry"/>
        </mxCell>
        <mxCell id="tpZ0usnBtLV4rIkdhi2c-203" value="LB" style="rounded=1;whiteSpace=wrap;html=1;fontSize=16;fontStyle=1;fillColor=#d5e8d4;strokeColor=#82b366;" parent="1" vertex="1">
          <mxGeometry x="360" y="385" width="53" height="50" as="geometry"/>
        </mxCell>
        <mxCell id="tpZ0usnBtLV4rIkdhi2c-204" value="LB" style="rounded=1;whiteSpace=wrap;html=1;fontSize=16;fontStyle=1;fillColor=#d5e8d4;strokeColor=#82b366;" parent="1" vertex="1">
          <mxGeometry x="360" y="505" width="53" height="50" as="geometry"/>
        </mxCell>
        <mxCell id="tpZ0usnBtLV4rIkdhi2c-205" value="LB" style="rounded=1;whiteSpace=wrap;html=1;fontSize=16;fontStyle=1;fillColor=#d5e8d4;strokeColor=#82b366;" parent="1" vertex="1">
          <mxGeometry x="363.5" y="625" width="53" height="50" as="geometry"/>
        </mxCell>
        <mxCell id="tpZ0usnBtLV4rIkdhi2c-206" value="亚太地区&lt;br&gt;用户" style="shape=umlActor;verticalLabelPosition=bottom;labelBackgroundColor=#ffffff;verticalAlign=top;html=1;outlineConnect=0;rounded=0;fontSize=14;" parent="1" vertex="1">
          <mxGeometry x="60" y="256" width="40" height="45" as="geometry"/>
        </mxCell>
        <mxCell id="tpZ0usnBtLV4rIkdhi2c-207" value="拉美地区&lt;br&gt;用户" style="shape=umlActor;verticalLabelPosition=bottom;labelBackgroundColor=#ffffff;verticalAlign=top;html=1;outlineConnect=0;rounded=0;fontSize=14;" parent="1" vertex="1">
          <mxGeometry x="60" y="378" width="40" height="45" as="geometry"/>
        </mxCell>
        <mxCell id="tpZ0usnBtLV4rIkdhi2c-208" value="xx地区&lt;br&gt;用户" style="shape=umlActor;verticalLabelPosition=bottom;labelBackgroundColor=#ffffff;verticalAlign=top;html=1;outlineConnect=0;rounded=0;fontSize=14;" parent="1" vertex="1">
          <mxGeometry x="60" y="620" width="40" height="45" as="geometry"/>
        </mxCell>
        <mxCell id="tpZ0usnBtLV4rIkdhi2c-209" value="南非地区&lt;br&gt;用户" style="shape=umlActor;verticalLabelPosition=bottom;labelBackgroundColor=#ffffff;verticalAlign=top;html=1;outlineConnect=0;rounded=0;fontSize=14;" parent="1" vertex="1">
          <mxGeometry x="60" y="499" width="40" height="45" as="geometry"/>
        </mxCell>
        <mxCell id="tpZ0usnBtLV4rIkdhi2c-211" value="" style="endArrow=classic;html=1;strokeColor=#000000;fontSize=16;exitX=1;exitY=0.5;exitDx=0;exitDy=0;entryX=0;entryY=0.5;entryDx=0;entryDy=0;rounded=0;edgeStyle=orthogonalEdgeStyle;" parent="1" source="tpZ0usnBtLV4rIkdhi2c-168" target="tpZ0usnBtLV4rIkdhi2c-200" edge="1">
          <mxGeometry width="50" height="50" relative="1" as="geometry">
            <mxPoint x="720" y="540" as="sourcePoint"/>
            <mxPoint x="770" y="490" as="targetPoint"/>
          </mxGeometry>
        </mxCell>
        <mxCell id="tpZ0usnBtLV4rIkdhi2c-214" value="根据用户属性&lt;br&gt;xDomainType调用" style="text;html=1;align=center;verticalAlign=middle;resizable=0;points=[];;labelBackgroundColor=#ffffff;fontSize=16;" parent="tpZ0usnBtLV4rIkdhi2c-211" vertex="1" connectable="0">
          <mxGeometry x="0.0397" y="4" relative="1" as="geometry">
            <mxPoint as="offset"/>
          </mxGeometry>
        </mxCell>
        <mxCell id="tpZ0usnBtLV4rIkdhi2c-212" value="" style="endArrow=classic;html=1;strokeColor=#000000;fontSize=16;exitX=1;exitY=0.5;exitDx=0;exitDy=0;entryX=0;entryY=0.5;entryDx=0;entryDy=0;edgeStyle=orthogonalEdgeStyle;rounded=0;" parent="1" source="tpZ0usnBtLV4rIkdhi2c-168" target="tpZ0usnBtLV4rIkdhi2c-182" edge="1">
          <mxGeometry width="50" height="50" relative="1" as="geometry">
            <mxPoint x="650" y="250" as="sourcePoint"/>
            <mxPoint x="700" y="200" as="targetPoint"/>
          </mxGeometry>
        </mxCell>
        <mxCell id="tpZ0usnBtLV4rIkdhi2c-213" value="根据Region&lt;br&gt;调用" style="text;html=1;align=center;verticalAlign=middle;resizable=0;points=[];;autosize=1;fontSize=16;" parent="1" vertex="1">
          <mxGeometry x="585" y="225" width="100" height="40" as="geometry"/>
        </mxCell>
        <mxCell id="tpZ0usnBtLV4rIkdhi2c-215" value="" style="shape=flexArrow;endArrow=classic;html=1;strokeColor=#000000;fontSize=16;" parent="1" edge="1">
          <mxGeometry width="50" height="50" relative="1" as="geometry">
            <mxPoint x="283.5" y="658.5" as="sourcePoint"/>
            <mxPoint x="343.5" y="658.5" as="targetPoint"/>
          </mxGeometry>
        </mxCell>
        <mxCell id="tpZ0usnBtLV4rIkdhi2c-216" value="" style="shape=flexArrow;endArrow=classic;html=1;strokeColor=#000000;fontSize=16;" parent="1" edge="1">
          <mxGeometry width="50" height="50" relative="1" as="geometry">
            <mxPoint x="283.5" y="290" as="sourcePoint"/>
            <mxPoint x="343.5" y="290" as="targetPoint"/>
          </mxGeometry>
        </mxCell>
        <mxCell id="tpZ0usnBtLV4rIkdhi2c-217" value="" style="shape=flexArrow;endArrow=classic;html=1;strokeColor=#000000;fontSize=16;" parent="1" edge="1">
          <mxGeometry width="50" height="50" relative="1" as="geometry">
            <mxPoint x="284" y="412.5" as="sourcePoint"/>
            <mxPoint x="344" y="412.5" as="targetPoint"/>
          </mxGeometry>
        </mxCell>
        <mxCell id="tpZ0usnBtLV4rIkdhi2c-218" value="" style="shape=flexArrow;endArrow=classic;html=1;strokeColor=#000000;fontSize=16;" parent="1" edge="1">
          <mxGeometry width="50" height="50" relative="1" as="geometry">
            <mxPoint x="284.5" y="174.5" as="sourcePoint"/>
            <mxPoint x="344.5" y="174.5" as="targetPoint"/>
          </mxGeometry>
        </mxCell>
        <mxCell id="tpZ0usnBtLV4rIkdhi2c-219" value="" style="shape=flexArrow;endArrow=classic;html=1;strokeColor=#000000;fontSize=16;" parent="1" edge="1">
          <mxGeometry width="50" height="50" relative="1" as="geometry">
            <mxPoint x="285" y="528" as="sourcePoint"/>
            <mxPoint x="345" y="528" as="targetPoint"/>
            <Array as="points">
              <mxPoint x="285.5" y="528"/>
            </Array>
          </mxGeometry>
        </mxCell>
        <mxCell id="tpZ0usnBtLV4rIkdhi2c-220" value="" style="shape=flexArrow;endArrow=classic;html=1;strokeColor=#000000;fontSize=16;" parent="1" edge="1">
          <mxGeometry width="50" height="50" relative="1" as="geometry">
            <mxPoint x="108.5" y="658.5" as="sourcePoint"/>
            <mxPoint x="168.5" y="658.5" as="targetPoint"/>
          </mxGeometry>
        </mxCell>
        <mxCell id="tpZ0usnBtLV4rIkdhi2c-221" value="" style="shape=flexArrow;endArrow=classic;html=1;strokeColor=#000000;fontSize=16;" parent="1" edge="1">
          <mxGeometry width="50" height="50" relative="1" as="geometry">
            <mxPoint x="108.5" y="290" as="sourcePoint"/>
            <mxPoint x="168.5" y="290" as="targetPoint"/>
          </mxGeometry>
        </mxCell>
        <mxCell id="tpZ0usnBtLV4rIkdhi2c-222" value="" style="shape=flexArrow;endArrow=classic;html=1;strokeColor=#000000;fontSize=16;" parent="1" edge="1">
          <mxGeometry width="50" height="50" relative="1" as="geometry">
            <mxPoint x="109" y="412.5" as="sourcePoint"/>
            <mxPoint x="169" y="412.5" as="targetPoint"/>
          </mxGeometry>
        </mxCell>
        <mxCell id="tpZ0usnBtLV4rIkdhi2c-223" value="" style="shape=flexArrow;endArrow=classic;html=1;strokeColor=#000000;fontSize=16;" parent="1" edge="1">
          <mxGeometry width="50" height="50" relative="1" as="geometry">
            <mxPoint x="109.5" y="174.5" as="sourcePoint"/>
            <mxPoint x="169.5" y="174.5" as="targetPoint"/>
          </mxGeometry>
        </mxCell>
        <mxCell id="tpZ0usnBtLV4rIkdhi2c-224" value="" style="shape=flexArrow;endArrow=classic;html=1;strokeColor=#000000;fontSize=16;" parent="1" edge="1">
          <mxGeometry width="50" height="50" relative="1" as="geometry">
            <mxPoint x="110" y="528" as="sourcePoint"/>
            <mxPoint x="170" y="528" as="targetPoint"/>
            <Array as="points">
              <mxPoint x="110.5" y="528"/>
            </Array>
          </mxGeometry>
        </mxCell>
        <mxCell id="tpZ0usnBtLV4rIkdhi2c-225" value="" style="shape=flexArrow;endArrow=classic;html=1;strokeColor=#000000;fontSize=16;" parent="1" edge="1">
          <mxGeometry width="50" height="50" relative="1" as="geometry">
            <mxPoint x="120" y="710" as="sourcePoint"/>
            <mxPoint x="270" y="790" as="targetPoint"/>
          </mxGeometry>
        </mxCell>
        <mxCell id="tpZ0usnBtLV4rIkdhi2c-226" value="静态资源" style="text;html=1;align=center;verticalAlign=middle;resizable=0;points=[];;labelBackgroundColor=#ffffff;fontSize=16;" parent="tpZ0usnBtLV4rIkdhi2c-225" vertex="1" connectable="0">
          <mxGeometry x="-0.191" y="5" relative="1" as="geometry">
            <mxPoint as="offset"/>
          </mxGeometry>
        </mxCell>
      </root>
    </mxGraphModel>
  </diagram>
</mxfile>
